<?xml version="1.0" encoding="utf-8" standalone="no"?>
<!DOCTYPE svg PUBLIC "-//W3C//DTD SVG 1.1//EN"
  "http://www.w3.org/Graphics/SVG/1.1/DTD/svg11.dtd">
<svg xmlns:xlink="http://www.w3.org/1999/xlink" width="460.8pt" height="302.4pt" viewBox="0 0 460.8 302.4" xmlns="http://www.w3.org/2000/svg" version="1.1">
 <metadata>
  <rdf:RDF xmlns:dc="http://purl.org/dc/elements/1.1/" xmlns:cc="http://creativecommons.org/ns#" xmlns:rdf="http://www.w3.org/1999/02/22-rdf-syntax-ns#">
   <cc:Work>
    <dc:type rdf:resource="http://purl.org/dc/dcmitype/StillImage"/>
    <dc:format>image/svg+xml</dc:format>
    <dc:creator>
     <cc:Agent>
      <dc:title>Matplotlib v3.11.1, https://matplotlib.org/</dc:title>
     </cc:Agent>
    </dc:creator>
   </cc:Work>
  </rdf:RDF>
 </metadata>
 <defs>
  <style type="text/css">*{stroke-linejoin: round; stroke-linecap: butt}</style>
 </defs>
 <g id="figure_1">
  <g id="patch_1">
   <path d="M 0 302.4 
L 460.8 302.4 
L 460.8 0 
L 0 0 
z
" style="fill: #ffffff"/>
  </g>
  <g id="axes_1">
   <g id="patch_2">
    <path d="M 45.38149 268.39976 
L 449.472885 268.39976 
L 449.472885 12.117427 
L 45.38149 12.117427 
z
" style="fill: #ffffff"/>
   </g>
   <g id="matplotlib.axis_1">
    <g id="xtick_1">
     <g id="line2d_1">
      <defs>
       <path id="ma7ebb34275" d="M 0 0 
L 0 3.5 
" style="stroke: #000000; stroke-width: 0.8"/>
      </defs>
      <g>
       <use xlink:href="#ma7ebb34275" x="45.38149" y="268.39976" style="stroke: #000000; stroke-width: 0.8"/>
      </g>
     </g>
     <g id="text_1">
      <!-- Γ -->
      <g transform="translate(37.054615 293.634135) scale(0.24 -0.24)">
       <defs>
        <path id="DejaVuSerif-30c" d="M 1581 331 
L 2328 331 
L 2328 0 
L 353 0 
L 353 331 
L 947 331 
L 947 4331 
L 353 4331 
L 353 4666 
L 4172 4666 
L 4172 3625 
L 3788 3625 
L 3788 4281 
L 1581 4281 
L 1581 331 
z
" transform="scale(0.015625)"/>
       </defs>
       <use xlink:href="#DejaVuSerif-30c"/>
      </g>
     </g>
    </g>
    <g id="xtick_2">
     <g id="line2d_2">
      <g>
       <use xlink:href="#ma7ebb34275" x="180.078622" y="268.39976" style="stroke: #000000; stroke-width: 0.8"/>
      </g>
     </g>
     <g id="text_2">
      <!-- M -->
      <g transform="translate(167.791747 293.634135) scale(0.24 -0.24)">
       <defs>
        <path id="DejaVuSerif-30" d="M 353 0 
L 353 331 
L 947 331 
L 947 4331 
L 319 4331 
L 319 4666 
L 1678 4666 
L 3316 1344 
L 4953 4666 
L 6228 4666 
L 6228 4331 
L 5606 4331 
L 5606 331 
L 6203 331 
L 6203 0 
L 4378 0 
L 4378 331 
L 4972 331 
L 4972 3938 
L 3372 684 
L 2931 684 
L 1331 3938 
L 1331 331 
L 1925 331 
L 1925 0 
L 353 0 
z
" transform="scale(0.015625)"/>
       </defs>
       <use xlink:href="#DejaVuSerif-30"/>
      </g>
     </g>
    </g>
    <g id="xtick_3">
     <g id="line2d_3">
      <g>
       <use xlink:href="#ma7ebb34275" x="314.775753" y="268.39976" style="stroke: #000000; stroke-width: 0.8"/>
      </g>
     </g>
     <g id="text_3">
      <!-- K -->
      <g transform="translate(305.811378 293.634135) scale(0.24 -0.24)">
       <defs>
        <path id="DejaVuSerif-2e" d="M 353 0 
L 353 331 
L 947 331 
L 947 4331 
L 353 4331 
L 353 4666 
L 2175 4666 
L 2175 4331 
L 1581 4331 
L 1581 2566 
L 3591 4331 
L 3084 4331 
L 3084 4666 
L 4634 4666 
L 4634 4331 
L 4109 4331 
L 2106 2572 
L 4347 331 
L 4878 331 
L 4878 0 
L 3794 0 
L 1581 2216 
L 1581 331 
L 2175 331 
L 2175 0 
L 353 0 
z
" transform="scale(0.015625)"/>
       </defs>
       <use xlink:href="#DejaVuSerif-2e"/>
      </g>
     </g>
    </g>
    <g id="xtick_4">
     <g id="line2d_4">
      <g>
       <use xlink:href="#ma7ebb34275" x="449.472885" y="268.39976" style="stroke: #000000; stroke-width: 0.8"/>
      </g>
     </g>
     <g id="text_4">
      <!-- Γ -->
      <g transform="translate(441.14601 293.634135) scale(0.24 -0.24)">
       <use xlink:href="#DejaVuSerif-30c"/>
      </g>
     </g>
    </g>
   </g>
   <g id="matplotlib.axis_2">
    <g id="ytick_1">
     <g id="line2d_5">
      <defs>
       <path id="m822149916f" d="M 0 0 
L -3.5 0 
" style="stroke: #000000; stroke-width: 0.8"/>
      </defs>
      <g>
       <use xlink:href="#m822149916f" x="45.38149" y="239.923945" style="stroke: #000000; stroke-width: 0.8"/>
      </g>
     </g>
     <g id="text_5">
      <!-- −1 -->
      <g transform="translate(3.00024 249.041133) scale(0.24 -0.24)">
       <defs>
        <path id="DejaVuSerif-8cf" d="M 678 2259 
L 4684 2259 
L 4684 1753 
L 678 1753 
L 678 2259 
z
" transform="scale(0.015625)"/>
        <path id="DejaVuSerif-14" d="M 909 0 
L 909 331 
L 1722 331 
L 1722 4213 
L 781 3603 
L 781 4013 
L 1919 4750 
L 2350 4750 
L 2350 331 
L 3163 331 
L 3163 0 
L 909 0 
z
" transform="scale(0.015625)"/>
       </defs>
       <use xlink:href="#DejaVuSerif-8cf"/>
       <use xlink:href="#DejaVuSerif-14" transform="translate(83.796875 0)"/>
      </g>
     </g>
    </g>
    <g id="ytick_2">
     <g id="line2d_6">
      <g>
       <use xlink:href="#m822149916f" x="45.38149" y="182.972316" style="stroke: #000000; stroke-width: 0.8"/>
      </g>
     </g>
     <g id="text_6">
      <!-- 0 -->
      <g transform="translate(23.11149 192.089503) scale(0.24 -0.24)">
       <defs>
        <path id="DejaVuSerif-13" d="M 2034 219 
Q 2513 219 2750 744 
Q 2988 1269 2988 2328 
Q 2988 3391 2750 3916 
Q 2513 4441 2034 4441 
Q 1556 4441 1318 3916 
Q 1081 3391 1081 2328 
Q 1081 1269 1318 744 
Q 1556 219 2034 219 
z
M 2034 -91 
Q 1275 -91 848 546 
Q 422 1184 422 2328 
Q 422 3475 848 4112 
Q 1275 4750 2034 4750 
Q 2797 4750 3222 4112 
Q 3647 3475 3647 2328 
Q 3647 1184 3222 546 
Q 2797 -91 2034 -91 
z
" transform="scale(0.015625)"/>
       </defs>
       <use xlink:href="#DejaVuSerif-13"/>
      </g>
     </g>
    </g>
    <g id="ytick_3">
     <g id="line2d_7">
      <g>
       <use xlink:href="#m822149916f" x="45.38149" y="126.020686" style="stroke: #000000; stroke-width: 0.8"/>
      </g>
     </g>
     <g id="text_7">
      <!-- 1 -->
      <g transform="translate(23.11149 135.137874) scale(0.24 -0.24)">
       <use xlink:href="#DejaVuSerif-14"/>
      </g>
     </g>
    </g>
    <g id="ytick_4">
     <g id="line2d_8">
      <g>
       <use xlink:href="#m822149916f" x="45.38149" y="69.069057" style="stroke: #000000; stroke-width: 0.8"/>
      </g>
     </g>
     <g id="text_8">
      <!-- 2 -->
      <g transform="translate(23.11149 78.186244) scale(0.24 -0.24)">
       <defs>
        <path id="DejaVuSerif-15" d="M 819 3553 
L 469 3553 
L 469 4384 
Q 803 4563 1142 4656 
Q 1481 4750 1806 4750 
Q 2534 4750 2956 4397 
Q 3378 4044 3378 3438 
Q 3378 2753 2422 1800 
Q 2347 1728 2309 1691 
L 1131 513 
L 3078 513 
L 3078 1088 
L 3444 1088 
L 3444 0 
L 434 0 
L 434 341 
L 1850 1753 
Q 2319 2222 2519 2614 
Q 2719 3006 2719 3438 
Q 2719 3909 2473 4175 
Q 2228 4441 1797 4441 
Q 1350 4441 1106 4219 
Q 863 3997 819 3553 
z
" transform="scale(0.015625)"/>
       </defs>
       <use xlink:href="#DejaVuSerif-15"/>
      </g>
     </g>
    </g>
    <g id="ytick_5">
     <g id="line2d_9">
      <g>
       <use xlink:href="#m822149916f" x="45.38149" y="12.117428" style="stroke: #000000; stroke-width: 0.8"/>
      </g>
     </g>
     <g id="text_9">
      <!-- 3 -->
      <g transform="translate(23.11149 21.234615) scale(0.24 -0.24)">
       <defs>
        <path id="DejaVuSerif-16" d="M 622 4469 
Q 988 4606 1323 4678 
Q 1659 4750 1953 4750 
Q 2638 4750 3022 4454 
Q 3406 4159 3406 3634 
Q 3406 3213 3140 2930 
Q 2875 2647 2388 2547 
Q 2963 2466 3280 2130 
Q 3597 1794 3597 1259 
Q 3597 606 3158 257 
Q 2719 -91 1894 -91 
Q 1528 -91 1179 -12 
Q 831 66 488 225 
L 488 1131 
L 838 1131 
Q 869 681 1141 450 
Q 1413 219 1906 219 
Q 2384 219 2661 495 
Q 2938 772 2938 1253 
Q 2938 1803 2653 2086 
Q 2369 2369 1819 2369 
L 1522 2369 
L 1522 2688 
L 1678 2688 
Q 2225 2688 2498 2914 
Q 2772 3141 2772 3597 
Q 2772 4006 2547 4223 
Q 2322 4441 1900 4441 
Q 1478 4441 1245 4241 
Q 1013 4041 972 3647 
L 622 3647 
L 622 4469 
z
" transform="scale(0.015625)"/>
       </defs>
       <use xlink:href="#DejaVuSerif-16"/>
      </g>
     </g>
    </g>
   </g>
   <g id="line2d_10">
    <path d="M 45.38149 202.209039 
L 50.026219 202.365599 
L 54.670947 202.858344 
L 59.315676 203.748441 
L 63.960405 205.114654 
L 68.605133 207.023843 
L 73.249862 209.513142 
L 77.894591 212.579019 
L 82.539319 216.173293 
L 87.184048 220.207747 
L 91.828777 224.564034 
L 96.473505 229.096472 
L 101.118234 233.645769 
L 105.762963 238.044029 
L 110.407691 242.124499 
L 115.05242 245.732499 
L 119.697149 248.736014 
L 124.341878 251.041815 
L 128.986606 252.606447 
L 133.631335 253.443636 
L 138.276064 253.621723 
L 142.920792 253.254556 
L 147.565521 252.483944 
L 152.21025 251.461833 
L 156.854978 250.336355 
L 161.499707 249.239182 
L 166.144436 248.277952 
L 170.789164 247.535872 
L 175.433893 247.068869 
L 180.078622 246.909575 
" clip-path="url(#pcbd20a050b)" style="fill: none; stroke: #8080ff; stroke-width: 1.5; stroke-linecap: square"/>
   </g>
   <g id="line2d_11">
    <path d="M 180.078622 246.909575 
L 184.72335 246.554425 
L 189.368079 245.561473 
L 194.012808 244.097987 
L 198.657536 242.335049 
L 203.302265 240.402965 
L 207.946994 238.388074 
L 212.591722 236.342941 
L 217.236451 234.296555 
L 221.88118 232.263666 
L 226.525908 230.249572 
L 231.170637 228.251766 
L 235.815366 226.263869 
L 240.460094 224.277396 
L 245.104823 222.281526 
L 249.749552 220.268059 
L 254.394281 218.224122 
L 259.039009 216.139635 
L 263.683738 214.004689 
L 268.328467 211.811653 
L 272.973195 209.554033 
L 277.617924 207.228584 
L 282.262653 204.835591 
L 286.907381 202.382001 
L 291.55211 199.882451 
L 296.196839 197.372137 
L 300.841567 194.921736 
L 305.486296 192.677899 
L 310.131025 190.949815 
L 314.775753 190.257454 
" clip-path="url(#pcbd20a050b)" style="fill: none; stroke: #8080ff; stroke-width: 1.5; stroke-linecap: square"/>
   </g>
   <g id="line2d_12">
    <path d="M 314.775753 190.257454 
L 319.420482 192.831782 
L 324.065211 198.166099 
L 328.709939 204.264651 
L 333.354668 210.577625 
L 337.999397 216.913949 
L 342.644125 223.156588 
L 347.288854 229.193803 
L 351.933583 234.890105 
L 356.578311 240.07071 
L 361.22304 244.515613 
L 365.867769 247.964661 
L 370.512497 250.155021 
L 375.157226 250.887931 
L 379.801955 250.112478 
L 384.446684 247.952986 
L 389.091412 244.657423 
L 393.736141 240.518008 
L 398.38087 235.816366 
L 403.025598 230.81083 
L 407.670327 225.738092 
L 412.315056 220.81787 
L 416.959784 216.252057 
L 421.604513 212.215839 
L 426.249242 208.844929 
L 430.89397 206.211941 
L 435.538699 204.315338 
L 440.183428 203.087404 
L 444.828156 202.418848 
L 449.472885 202.209039 
" clip-path="url(#pcbd20a050b)" style="fill: none; stroke: #8080ff; stroke-width: 1.5; stroke-linecap: square"/>
   </g>
   <g id="line2d_13">
    <path d="M 45.38149 34.209591 
L 50.026219 34.750518 
L 54.670947 36.263722 
L 59.315676 38.526354 
L 63.960405 41.265898 
L 68.605133 44.246291 
L 73.249862 47.292804 
L 77.894591 50.302356 
L 82.539319 53.220387 
L 87.184048 56.041941 
L 91.828777 58.781372 
L 96.473505 61.473076 
L 101.118234 64.152423 
L 105.762963 66.854891 
L 110.407691 69.609015 
L 115.05242 72.439853 
L 119.697149 75.353612 
L 124.341878 78.349268 
L 128.986606 81.411842 
L 133.631335 84.514453 
L 138.276064 87.616722 
L 142.920792 90.670696 
L 147.565521 93.618512 
L 152.21025 96.391829 
L 156.854978 98.918887 
L 161.499707 101.12525 
L 166.144436 102.936596 
L 170.789164 104.285382 
L 175.433893 105.117901 
L 180.078622 105.398957 
" clip-path="url(#pcbd20a050b)" style="fill: none; stroke: #8080ff; stroke-width: 1.5; stroke-linecap: square"/>
   </g>
   <g id="line2d_14">
    <path d="M 180.078622 105.398957 
L 184.72335 105.975535 
L 189.368079 107.441185 
L 194.012808 109.385856 
L 198.657536 111.568584 
L 203.302265 113.878371 
L 207.946994 116.263847 
L 212.591722 118.700181 
L 217.236451 121.174672 
L 221.88118 123.681227 
L 226.525908 126.217056 
L 231.170637 128.781815 
L 235.815366 131.376361 
L 240.460094 134.002514 
L 245.104823 136.66244 
L 249.749552 139.358872 
L 254.394281 142.093404 
L 259.039009 144.867518 
L 263.683738 147.681498 
L 268.328467 150.534148 
L 272.973195 153.422621 
L 277.617924 156.340937 
L 282.262653 159.280438 
L 286.907381 162.226546 
L 291.55211 165.154771 
L 296.196839 168.024506 
L 300.841567 170.760349 
L 305.486296 173.209952 
L 310.131025 175.062475 
L 314.775753 175.796126 
" clip-path="url(#pcbd20a050b)" style="fill: none; stroke: #8080ff; stroke-width: 1.5; stroke-linecap: square"/>
   </g>
   <g id="line2d_15">
    <path d="M 314.775753 175.796126 
L 319.420482 173.059771 
L 324.065211 167.260557 
L 328.709939 160.441169 
L 333.354668 153.208255 
L 337.999397 145.813428 
L 342.644125 138.407324 
L 347.288854 131.099576 
L 351.933583 123.970997 
L 356.578311 117.074838 
L 361.22304 110.439347 
L 365.867769 104.065036 
L 370.512497 97.932997 
L 375.157226 92.008832 
L 379.801955 86.25723 
L 384.446684 80.657859 
L 389.091412 75.223706 
L 393.736141 70.01639 
L 398.38087 65.194638 
L 403.025598 61.106536 
L 407.670327 57.967533 
L 412.315056 55.259426 
L 416.959784 52.496304 
L 421.604513 49.513348 
L 426.249242 46.302586 
L 430.89397 42.963683 
L 435.538699 39.709979 
L 440.183428 36.886887 
L 444.828156 34.925872 
L 449.472885 34.209591 
" clip-path="url(#pcbd20a050b)" style="fill: none; stroke: #8080ff; stroke-width: 1.5; stroke-linecap: square"/>
   </g>
   <g id="line2d_16">
    <path d="M 45.38149 34.20868 
L 50.026219 34.385685 
L 54.670947 34.911975 
L 59.315676 35.777583 
L 63.960405 36.979946 
L 68.605133 38.507503 
L 73.249862 40.342484 
L 77.894591 42.466951 
L 82.539319 44.853737 
L 87.184048 47.473113 
L 91.828777 50.294611 
L 96.473505 53.281837 
L 101.118234 56.393959 
L 105.762963 59.59373 
L 110.407691 62.839631 
L 115.05242 66.091626 
L 119.697149 69.313778 
L 124.341878 72.4685 
L 128.986606 75.519455 
L 133.631335 78.433727 
L 138.276064 81.177543 
L 142.920792 83.723167 
L 147.565521 86.042921 
L 152.21025 88.110891 
L 156.854978 89.904013 
L 161.499707 91.401158 
L 166.144436 92.585922 
L 170.789164 93.442646 
L 175.433893 93.960678 
L 180.078622 94.13364 
" clip-path="url(#pcbd20a050b)" style="fill: none; stroke: #8080ff; stroke-width: 1.5; stroke-linecap: square"/>
   </g>
   <g id="line2d_17">
    <path d="M 180.078622 94.13364 
L 184.72335 93.522435 
L 189.368079 91.9545 
L 194.012808 89.84803 
L 198.657536 87.45646 
L 203.302265 84.907875 
L 207.946994 82.273577 
L 212.591722 79.600211 
L 217.236451 76.922231 
L 221.88118 74.268114 
L 226.525908 71.660698 
L 231.170637 69.118491 
L 235.815366 66.656301 
L 240.460094 64.286202 
L 245.104823 62.018047 
L 249.749552 59.861459 
L 254.394281 57.822819 
L 259.039009 55.908674 
L 263.683738 54.125519 
L 268.328467 52.479047 
L 272.973195 50.975183 
L 277.617924 49.619278 
L 282.262653 48.416232 
L 286.907381 47.370486 
L 291.55211 46.485344 
L 296.196839 45.763254 
L 300.841567 45.205698 
L 305.486296 44.811137 
L 310.131025 44.577635 
L 314.775753 44.501092 
" clip-path="url(#pcbd20a050b)" style="fill: none; stroke: #8080ff; stroke-width: 1.5; stroke-linecap: square"/>
   </g>
   <g id="line2d_18">
    <path d="M 314.775753 44.501092 
L 319.420482 44.793596 
L 324.065211 45.625659 
L 328.709939 46.918746 
L 333.354668 48.58646 
L 337.999397 50.542065 
L 342.644125 52.692559 
L 347.288854 54.935485 
L 351.933583 57.155858 
L 356.578311 59.227132 
L 361.22304 61.022418 
L 365.867769 62.429237 
L 370.512497 63.371046 
L 375.157226 63.812251 
L 379.801955 63.761678 
L 384.446684 63.258624 
L 389.091412 62.348309 
L 393.736141 61.046224 
L 398.38087 59.272978 
L 403.025598 56.763348 
L 407.670327 53.356843 
L 412.315056 49.62036 
L 416.959784 46.067888 
L 421.604513 42.906105 
L 426.249242 40.215083 
L 430.89397 38.024781 
L 435.538699 36.33981 
L 440.183428 35.149179 
L 444.828156 34.444972 
L 449.472885 34.20868 
" clip-path="url(#pcbd20a050b)" style="fill: none; stroke: #8080ff; stroke-width: 1.5; stroke-linecap: square"/>
   </g>
   <g id="line2d_19">
    <path d="M 45.38149 209.158833 
L 49.871394 216.290512 
L 54.361299 222.69123 
L 58.851203 228.29086 
L 63.341108 233.02805 
L 67.831012 236.850899 
L 72.320916 239.717523 
L 76.810821 241.596514 
L 81.300725 242.467287 
L 85.790629 242.3203 
L 90.280534 241.157165 
L 94.770438 238.990624 
L 99.260343 235.844414 
L 103.750247 231.753007 
L 108.240151 226.761229 
L 112.730056 220.92377 
L 117.21996 214.304587 
L 121.709865 206.976202 
L 126.199769 199.018904 
L 130.689673 190.519877 
L 135.179578 181.572238 
L 139.669482 172.274017 
L 144.159387 174.914221 
L 148.649291 179.832733 
L 153.139195 185.266878 
L 157.6291 191.199713 
L 162.119004 197.594999 
L 166.608909 204.395976 
L 171.098813 211.527123 
L 175.588717 218.898038 
L 180.078622 226.408245 
" clip-path="url(#pcbd20a050b)" style="fill: none; stroke: #800080; stroke-width: 1.5; stroke-linecap: square"/>
   </g>
   <g id="line2d_20">
    <path d="M 180.078622 226.408245 
L 184.568526 226.379497 
L 189.05843 226.292764 
L 193.548335 226.146596 
L 198.038239 225.93862 
L 202.528144 225.665614 
L 207.018048 225.323597 
L 211.507952 224.907938 
L 215.997857 224.413491 
L 220.487761 223.834733 
L 224.977666 223.165911 
L 229.46757 222.401204 
L 233.957474 221.534869 
L 238.447379 220.561401 
L 242.937283 219.475685 
L 247.427188 218.273149 
L 251.917092 216.949913 
L 256.406996 215.502953 
L 260.896901 213.930276 
L 265.386805 212.231133 
L 269.876709 210.406295 
L 274.366614 208.45846 
L 278.856518 206.39288 
L 283.346423 204.218439 
L 287.836327 201.949603 
L 292.326231 199.610216 
L 296.816136 197.241389 
L 301.30604 194.918915 
L 305.795945 192.792523 
L 310.285849 191.161716 
L 314.775753 190.512379 
" clip-path="url(#pcbd20a050b)" style="fill: none; stroke: #800080; stroke-width: 1.5; stroke-linecap: square"/>
   </g>
   <g id="line2d_21">
    <path d="M 314.775753 190.512379 
L 319.265658 192.93428 
L 323.755562 197.998044 
L 328.245467 203.807953 
L 332.735371 209.828823 
L 337.225275 215.880013 
L 341.71518 221.871107 
L 346.205084 227.738659 
L 350.694988 233.426829 
L 355.184893 238.880149 
L 359.674797 244.040583 
L 364.164702 248.84655 
L 368.654606 253.233091 
L 373.14451 257.132825 
L 377.634415 260.477488 
L 382.124319 263.199875 
L 386.614224 265.23602 
L 391.104128 266.527456 
L 395.594032 267.023424 
L 400.083937 266.6829 
L 404.573841 265.476358 
L 409.063746 263.387189 
L 413.55365 260.412741 
L 418.043554 256.564951 
L 422.533459 251.870559 
L 427.023363 246.370912 
L 431.513267 240.121376 
L 436.003172 233.190366 
L 440.493076 225.658043 
L 444.982981 217.61469 
L 449.472885 209.158833 
" clip-path="url(#pcbd20a050b)" style="fill: none; stroke: #800080; stroke-width: 1.5; stroke-linecap: square"/>
   </g>
   <g id="line2d_22">
    <path d="M 45.38149 209.158833 
L 49.871394 201.798062 
L 54.361299 194.719501 
L 58.851203 188.00994 
L 63.341108 181.749906 
L 67.831012 176.011792 
L 72.320916 170.857989 
L 76.810821 166.339116 
L 81.300725 162.492556 
L 85.790629 159.341493 
L 90.280534 156.894702 
L 94.770438 155.147253 
L 99.260343 154.082216 
L 103.750247 153.673301 
L 108.240151 153.888217 
L 112.730056 154.69244 
L 117.21996 156.053001 
L 121.709865 157.94193 
L 126.199769 160.338952 
L 130.689673 163.233059 
L 135.179578 166.622551 
L 139.669482 170.51318 
L 144.159387 162.72709 
L 148.649291 153.036054 
L 153.139195 143.307085 
L 157.6291 133.646778 
L 162.119004 124.160971 
L 166.608909 114.953594 
L 171.098813 106.125524 
L 175.588717 98.80715 
L 180.078622 98.994749 
" clip-path="url(#pcbd20a050b)" style="fill: none; stroke: #800080; stroke-width: 1.5; stroke-linecap: square"/>
   </g>
   <g id="line2d_23">
    <path d="M 180.078622 98.994749 
L 184.568526 99.710883 
L 189.05843 101.437552 
L 193.548335 103.63144 
L 198.038239 106.040421 
L 202.528144 108.564004 
L 207.018048 111.158711 
L 211.507952 113.80374 
L 215.997857 116.488358 
L 220.487761 119.206742 
L 224.977666 121.95564 
L 229.46757 124.733177 
L 233.957474 127.538205 
L 238.447379 130.369911 
L 242.937283 133.22756 
L 247.427188 136.110314 
L 251.917092 139.017094 
L 256.406996 141.946445 
L 260.896901 144.896407 
L 265.386805 147.864345 
L 269.876709 150.84672 
L 274.366614 153.83872 
L 278.856518 156.83367 
L 283.346423 159.821984 
L 287.836327 162.78923 
L 292.326231 165.712353 
L 296.816136 168.551783 
L 301.30604 171.234018 
L 305.795945 173.612354 
L 310.285849 175.391023 
L 314.775753 176.088558 
" clip-path="url(#pcbd20a050b)" style="fill: none; stroke: #800080; stroke-width: 1.5; stroke-linecap: square"/>
   </g>
   <g id="line2d_24">
    <path d="M 314.775753 176.088558 
L 319.265658 173.484881 
L 323.755562 167.908774 
L 328.245467 161.31096 
L 332.735371 154.287449 
L 337.225275 147.083746 
L 341.71518 139.858003 
L 346.205084 132.744541 
L 350.694988 125.876167 
L 355.184893 119.399054 
L 359.674797 113.490637 
L 364.164702 108.384017 
L 368.654606 104.389566 
L 373.14451 101.870366 
L 377.634415 101.10648 
L 382.124319 102.115132 
L 386.614224 104.658804 
L 391.104128 108.431402 
L 395.594032 113.188683 
L 400.083937 118.766368 
L 404.573841 125.054455 
L 409.063746 131.970699 
L 413.55365 139.442854 
L 418.043554 147.398432 
L 422.533459 155.759436 
L 427.023363 164.440204 
L 431.513267 173.347158 
L 436.003172 182.379746 
L 440.493076 191.4321 
L 444.982981 200.39513 
L 449.472885 209.158833 
" clip-path="url(#pcbd20a050b)" style="fill: none; stroke: #800080; stroke-width: 1.5; stroke-linecap: square"/>
   </g>
   <g id="line2d_25">
    <path d="M 45.38149 28.727056 
L 49.871394 28.869449 
L 54.361299 29.288147 
L 58.851203 29.969324 
L 63.341108 30.898504 
L 67.831012 32.061699 
L 72.320916 33.446642 
L 76.810821 35.044005 
L 81.300725 36.848416 
L 85.790629 38.859064 
L 90.280534 41.079668 
L 94.770438 43.517637 
L 99.260343 46.182336 
L 103.750247 49.082527 
L 108.240151 52.223208 
L 112.730056 55.602138 
L 117.21996 59.206453 
L 121.709865 63.009728 
L 126.199769 66.969873 
L 130.689673 71.028245 
L 135.179578 75.110372 
L 139.669482 79.128641 
L 144.159387 82.987125 
L 148.649291 86.588272 
L 153.139195 89.840578 
L 157.6291 92.665815 
L 162.119004 95.004266 
L 166.608909 96.817002 
L 171.098813 98.085171 
L 175.588717 97.773483 
L 180.078622 89.988979 
" clip-path="url(#pcbd20a050b)" style="fill: none; stroke: #800080; stroke-width: 1.5; stroke-linecap: square"/>
   </g>
   <g id="line2d_26">
    <path d="M 180.078622 89.988979 
L 184.568526 89.291958 
L 189.05843 87.623199 
L 193.548335 85.527715 
L 198.038239 83.260411 
L 202.528144 80.92557 
L 207.018048 78.571379 
L 211.507952 76.224148 
L 215.997857 73.900788 
L 220.487761 71.613812 
L 224.977666 69.373535 
L 229.46757 67.189091 
L 233.957474 65.06893 
L 238.447379 63.021042 
L 242.937283 61.053055 
L 247.427188 59.172249 
L 251.917092 57.38554 
L 256.406996 55.699436 
L 260.896901 54.119981 
L 265.386805 52.652703 
L 269.876709 51.30255 
L 274.366614 50.073846 
L 278.856518 48.970236 
L 283.346423 47.994648 
L 287.836327 47.149263 
L 292.326231 46.435484 
L 296.816136 45.853926 
L 301.30604 45.404409 
L 305.795945 45.085956 
L 310.285849 44.896808 
L 314.775753 44.834443 
" clip-path="url(#pcbd20a050b)" style="fill: none; stroke: #800080; stroke-width: 1.5; stroke-linecap: square"/>
   </g>
   <g id="line2d_27">
    <path d="M 314.775753 44.834443 
L 319.265658 45.07633 
L 323.755562 45.777408 
L 328.245467 46.893726 
L 332.735371 48.373212 
L 337.225275 50.157217 
L 341.71518 52.181479 
L 346.205084 54.375717 
L 350.694988 56.660586 
L 355.184893 58.94 
L 359.674797 61.086198 
L 364.164702 62.91641 
L 368.654606 64.171219 
L 373.14451 64.538363 
L 377.634415 63.787175 
L 382.124319 61.946747 
L 386.614224 59.296001 
L 391.104128 56.175618 
L 395.594032 52.855812 
L 400.083937 49.516599 
L 404.573841 46.272164 
L 409.063746 43.196388 
L 413.55365 40.340005 
L 418.043554 37.740635 
L 422.533459 35.428234 
L 427.023363 33.427825 
L 431.513267 31.760677 
L 436.003172 30.444635 
L 440.493076 29.494014 
L 444.982981 28.919339 
L 449.472885 28.727056 
" clip-path="url(#pcbd20a050b)" style="fill: none; stroke: #800080; stroke-width: 1.5; stroke-linecap: square"/>
   </g>
   <g id="line2d_28">
    <path d="M 45.38149 268.39976 
L 45.38149 12.117427 
" clip-path="url(#pcbd20a050b)" style="fill: none; stroke: #000000; stroke-width: 0.6; stroke-linecap: square"/>
   </g>
   <g id="line2d_29">
    <path d="M 180.078622 268.39976 
L 180.078622 12.117427 
" clip-path="url(#pcbd20a050b)" style="fill: none; stroke: #000000; stroke-width: 0.6; stroke-linecap: square"/>
   </g>
   <g id="line2d_30">
    <path d="M 314.775753 268.39976 
L 314.775753 12.117427 
" clip-path="url(#pcbd20a050b)" style="fill: none; stroke: #000000; stroke-width: 0.6; stroke-linecap: square"/>
   </g>
   <g id="line2d_31">
    <path d="M 449.472885 268.39976 
L 449.472885 12.117427 
" clip-path="url(#pcbd20a050b)" style="fill: none; stroke: #000000; stroke-width: 0.6; stroke-linecap: square"/>
   </g>
   <g id="line2d_32">
    <path d="M 45.38149 182.972316 
L 449.472885 182.972316 
" clip-path="url(#pcbd20a050b)" style="fill: none; stroke: #000000; stroke-width: 0.6; stroke-linecap: square"/>
   </g>
   <g id="patch_3">
    <path d="M 45.38149 268.39976 
L 45.38149 12.117428 
" style="fill: none; stroke: #000000; stroke-width: 0.8; stroke-linejoin: miter; stroke-linecap: square"/>
   </g>
   <g id="patch_4">
    <path d="M 449.472885 268.39976 
L 449.472885 12.117428 
" style="fill: none; stroke: #000000; stroke-width: 0.8; stroke-linejoin: miter; stroke-linecap: square"/>
   </g>
   <g id="patch_5">
    <path d="M 45.38149 268.39976 
L 449.472885 268.39976 
" style="fill: none; stroke: #000000; stroke-width: 0.8; stroke-linejoin: miter; stroke-linecap: square"/>
   </g>
   <g id="patch_6">
    <path d="M 45.38149 12.117427 
L 449.472885 12.117427 
" style="fill: none; stroke: #000000; stroke-width: 0.8; stroke-linejoin: miter; stroke-linecap: square"/>
   </g>
   <g id="legend_1">
    <g id="patch_7">
     <path d="M 53.78149 160.059531 
L 152.61274 160.059531 
Q 155.01274 160.059531 155.01274 157.659531 
L 155.01274 122.857656 
Q 155.01274 120.457656 152.61274 120.457656 
L 53.78149 120.457656 
Q 51.38149 120.457656 51.38149 122.857656 
L 51.38149 157.659531 
Q 51.38149 160.059531 53.78149 160.059531 
z
" style="fill: #ffffff; opacity: 0.8; stroke: #cccccc; stroke-linejoin: miter"/>
    </g>
    <g id="line2d_33">
     <path d="M 56.18149 130.175781 
L 68.18149 130.175781 
L 80.18149 130.175781 
" style="fill: none; stroke: #800080; stroke-width: 1.5; stroke-linecap: square"/>
    </g>
    <g id="text_10">
     <!-- TB -->
     <g transform="translate(89.78149 134.375781) scale(0.12 -0.12)">
      <defs>
       <path id="DejaVuSans-37" d="M -19 4666 
L 3928 4666 
L 3928 4134 
L 2272 4134 
L 2272 0 
L 1638 0 
L 1638 4134 
L -19 4134 
L -19 4666 
z
" transform="scale(0.015625)"/>
       <path id="DejaVuSans-25" d="M 1259 2228 
L 1259 519 
L 2272 519 
Q 2781 519 3026 730 
Q 3272 941 3272 1375 
Q 3272 1813 3026 2020 
Q 2781 2228 2272 2228 
L 1259 2228 
z
M 1259 4147 
L 1259 2741 
L 2194 2741 
Q 2656 2741 2882 2914 
Q 3109 3088 3109 3444 
Q 3109 3797 2882 3972 
Q 2656 4147 2194 4147 
L 1259 4147 
z
M 628 4666 
L 2241 4666 
Q 2963 4666 3353 4366 
Q 3744 4066 3744 3513 
Q 3744 3084 3544 2831 
Q 3344 2578 2956 2516 
Q 3422 2416 3680 2098 
Q 3938 1781 3938 1306 
Q 3938 681 3513 340 
Q 3088 0 2303 0 
L 628 0 
L 628 4666 
z
" transform="scale(0.015625)"/>
      </defs>
      <use xlink:href="#DejaVuSans-37"/>
      <use xlink:href="#DejaVuSans-25" transform="translate(61.078125 0)"/>
     </g>
    </g>
    <g id="line2d_34">
     <path d="M 56.18149 148.176719 
L 68.18149 148.176719 
L 80.18149 148.176719 
" style="fill: none; stroke: #8080ff; stroke-width: 1.5; stroke-linecap: square"/>
    </g>
    <g id="text_11">
     <!-- Reference -->
     <g transform="translate(89.78149 152.376719) scale(0.12 -0.12)">
      <defs>
       <path id="DejaVuSans-35" d="M 2841 2188 
Q 3044 2119 3236 1894 
Q 3428 1669 3622 1275 
L 4263 0 
L 3584 0 
L 2988 1197 
Q 2756 1666 2539 1819 
Q 2322 1972 1947 1972 
L 1259 1972 
L 1259 0 
L 628 0 
L 628 4666 
L 2053 4666 
Q 2853 4666 3247 4331 
Q 3641 3997 3641 3322 
Q 3641 2881 3436 2590 
Q 3231 2300 2841 2188 
z
M 1259 4147 
L 1259 2491 
L 2053 2491 
Q 2509 2491 2742 2702 
Q 2975 2913 2975 3322 
Q 2975 3731 2742 3939 
Q 2509 4147 2053 4147 
L 1259 4147 
z
" transform="scale(0.015625)"/>
       <path id="DejaVuSans-48" d="M 3597 1894 
L 3597 1613 
L 953 1613 
Q 991 1019 1311 708 
Q 1631 397 2203 397 
Q 2534 397 2845 478 
Q 3156 559 3463 722 
L 3463 178 
Q 3153 47 2828 -22 
Q 2503 -91 2169 -91 
Q 1331 -91 842 396 
Q 353 884 353 1716 
Q 353 2575 817 3079 
Q 1281 3584 2069 3584 
Q 2775 3584 3186 3129 
Q 3597 2675 3597 1894 
z
M 3022 2063 
Q 3016 2534 2758 2815 
Q 2500 3097 2075 3097 
Q 1594 3097 1305 2825 
Q 1016 2553 972 2059 
L 3022 2063 
z
" transform="scale(0.015625)"/>
       <path id="DejaVuSans-49" d="M 2375 4863 
L 2375 4384 
L 1825 4384 
Q 1516 4384 1395 4259 
Q 1275 4134 1275 3809 
L 1275 3500 
L 2222 3500 
L 2222 3053 
L 1275 3053 
L 1275 0 
L 697 0 
L 697 3053 
L 147 3053 
L 147 3500 
L 697 3500 
L 697 3744 
Q 697 4328 969 4595 
Q 1241 4863 1831 4863 
L 2375 4863 
z
" transform="scale(0.015625)"/>
       <path id="DejaVuSans-55" d="M 2631 2963 
Q 2534 3019 2420 3045 
Q 2306 3072 2169 3072 
Q 1681 3072 1420 2755 
Q 1159 2438 1159 1844 
L 1159 0 
L 581 0 
L 581 3500 
L 1159 3500 
L 1159 2956 
Q 1341 3275 1631 3429 
Q 1922 3584 2338 3584 
Q 2397 3584 2469 3576 
Q 2541 3569 2628 3553 
L 2631 2963 
z
" transform="scale(0.015625)"/>
       <path id="DejaVuSans-51" d="M 3513 2113 
L 3513 0 
L 2938 0 
L 2938 2094 
Q 2938 2591 2744 2837 
Q 2550 3084 2163 3084 
Q 1697 3084 1428 2787 
Q 1159 2491 1159 1978 
L 1159 0 
L 581 0 
L 581 3500 
L 1159 3500 
L 1159 2956 
Q 1366 3272 1645 3428 
Q 1925 3584 2291 3584 
Q 2894 3584 3203 3211 
Q 3513 2838 3513 2113 
z
" transform="scale(0.015625)"/>
       <path id="DejaVuSans-46" d="M 3122 3366 
L 3122 2828 
Q 2878 2963 2633 3030 
Q 2388 3097 2138 3097 
Q 1578 3097 1268 2742 
Q 959 2388 959 1747 
Q 959 1106 1268 751 
Q 1578 397 2138 397 
Q 2388 397 2633 464 
Q 2878 531 3122 666 
L 3122 134 
Q 2881 22 2623 -34 
Q 2366 -91 2075 -91 
Q 1284 -91 818 406 
Q 353 903 353 1747 
Q 353 2603 823 3093 
Q 1294 3584 2113 3584 
Q 2378 3584 2631 3529 
Q 2884 3475 3122 3366 
z
" transform="scale(0.015625)"/>
      </defs>
      <use xlink:href="#DejaVuSans-35"/>
      <use xlink:href="#DejaVuSans-48" transform="translate(65 0)"/>
      <use xlink:href="#DejaVuSans-49" transform="translate(126.53125 0)"/>
      <use xlink:href="#DejaVuSans-48" transform="translate(161.734375 0)"/>
      <use xlink:href="#DejaVuSans-55" transform="translate(223.265625 0)"/>
      <use xlink:href="#DejaVuSans-48" transform="translate(262.171875 0)"/>
      <use xlink:href="#DejaVuSans-51" transform="translate(323.703125 0)"/>
      <use xlink:href="#DejaVuSans-46" transform="translate(387.078125 0)"/>
      <use xlink:href="#DejaVuSans-48" transform="translate(442.0625 0)"/>
     </g>
    </g>
   </g>
  </g>
 </g>
 <defs>
  <clipPath id="pcbd20a050b">
   <rect x="45.38149" y="12.117427" width="404.091395" height="256.282333"/>
  </clipPath>
 </defs>
</svg>
