<?xml version="1.0" encoding="utf-8" standalone="no"?>
<!DOCTYPE svg PUBLIC "-//W3C//DTD SVG 1.1//EN"
  "http://www.w3.org/Graphics/SVG/1.1/DTD/svg11.dtd">
<svg xmlns:xlink="http://www.w3.org/1999/xlink" width="460.8pt" height="302.4pt" viewBox="0 0 460.8 302.4" xmlns="http://www.w3.org/2000/svg" version="1.1">
 <metadata>
  <rdf:RDF xmlns:dc="http://purl.org/dc/elements/1.1/" xmlns:cc="http://creativecommons.org/ns#" xmlns:rdf="http://www.w3.org/1999/02/22-rdf-syntax-ns#">
   <cc:Work>
    <dc:type rdf:resource="http://purl.org/dc/dcmitype/StillImage"/>
    <dc:format>image/svg+xml</dc:format>
    <dc:creator>
     <cc:Agent>
      <dc:title>Matplotlib v3.11.1, https://matplotlib.org/</dc:title>
     </cc:Agent>
    </dc:creator>
   </cc:Work>
  </rdf:RDF>
 </metadata>
 <defs>
  <style type="text/css">*{stroke-linejoin: round; stroke-linecap: butt}</style>
 </defs>
 <g id="figure_1">
  <g id="patch_1">
   <path d="M 0 302.4 
L 460.8 302.4 
L 460.8 0 
L 0 0 
z
" style="fill: #ffffff"/>
  </g>
  <g id="axes_1">
   <g id="patch_2">
    <path d="M 45.38149 268.39976 
L 449.472885 268.39976 
L 449.472885 3.00024 
L 45.38149 3.00024 
z
" style="fill: #ffffff"/>
   </g>
   <g id="matplotlib.axis_1">
    <g id="xtick_1">
     <g id="line2d_1">
      <defs>
       <path id="meee97d818b" d="M 0 0 
L 0 3.5 
" style="stroke: #000000; stroke-width: 0.8"/>
      </defs>
      <g>
       <use xlink:href="#meee97d818b" x="45.38149" y="268.39976" style="stroke: #000000; stroke-width: 0.8"/>
      </g>
     </g>
     <g id="text_1">
      <!-- Γ -->
      <g transform="translate(37.054615 293.634135) scale(0.24 -0.24)">
       <defs>
        <path id="DejaVuSerif-30c" d="M 1581 331 
L 2328 331 
L 2328 0 
L 353 0 
L 353 331 
L 947 331 
L 947 4331 
L 353 4331 
L 353 4666 
L 4172 4666 
L 4172 3625 
L 3788 3625 
L 3788 4281 
L 1581 4281 
L 1581 331 
z
" transform="scale(0.015625)"/>
       </defs>
       <use xlink:href="#DejaVuSerif-30c"/>
      </g>
     </g>
    </g>
    <g id="xtick_2">
     <g id="line2d_2">
      <g>
       <use xlink:href="#meee97d818b" x="180.078622" y="268.39976" style="stroke: #000000; stroke-width: 0.8"/>
      </g>
     </g>
     <g id="text_2">
      <!-- M -->
      <g transform="translate(167.791747 293.634135) scale(0.24 -0.24)">
       <defs>
        <path id="DejaVuSerif-30" d="M 353 0 
L 353 331 
L 947 331 
L 947 4331 
L 319 4331 
L 319 4666 
L 1678 4666 
L 3316 1344 
L 4953 4666 
L 6228 4666 
L 6228 4331 
L 5606 4331 
L 5606 331 
L 6203 331 
L 6203 0 
L 4378 0 
L 4378 331 
L 4972 331 
L 4972 3938 
L 3372 684 
L 2931 684 
L 1331 3938 
L 1331 331 
L 1925 331 
L 1925 0 
L 353 0 
z
" transform="scale(0.015625)"/>
       </defs>
       <use xlink:href="#DejaVuSerif-30"/>
      </g>
     </g>
    </g>
    <g id="xtick_3">
     <g id="line2d_3">
      <g>
       <use xlink:href="#meee97d818b" x="314.775753" y="268.39976" style="stroke: #000000; stroke-width: 0.8"/>
      </g>
     </g>
     <g id="text_3">
      <!-- K -->
      <g transform="translate(305.811378 293.634135) scale(0.24 -0.24)">
       <defs>
        <path id="DejaVuSerif-2e" d="M 353 0 
L 353 331 
L 947 331 
L 947 4331 
L 353 4331 
L 353 4666 
L 2175 4666 
L 2175 4331 
L 1581 4331 
L 1581 2566 
L 3591 4331 
L 3084 4331 
L 3084 4666 
L 4634 4666 
L 4634 4331 
L 4109 4331 
L 2106 2572 
L 4347 331 
L 4878 331 
L 4878 0 
L 3794 0 
L 1581 2216 
L 1581 331 
L 2175 331 
L 2175 0 
L 353 0 
z
" transform="scale(0.015625)"/>
       </defs>
       <use xlink:href="#DejaVuSerif-2e"/>
      </g>
     </g>
    </g>
    <g id="xtick_4">
     <g id="line2d_4">
      <g>
       <use xlink:href="#meee97d818b" x="449.472885" y="268.39976" style="stroke: #000000; stroke-width: 0.8"/>
      </g>
     </g>
     <g id="text_4">
      <!-- Γ -->
      <g transform="translate(441.14601 293.634135) scale(0.24 -0.24)">
       <use xlink:href="#DejaVuSerif-30c"/>
      </g>
     </g>
    </g>
   </g>
   <g id="matplotlib.axis_2">
    <g id="ytick_1">
     <g id="line2d_5">
      <defs>
       <path id="mfba9ae358f" d="M 0 0 
L -3.5 0 
" style="stroke: #000000; stroke-width: 0.8"/>
      </defs>
      <g>
       <use xlink:href="#mfba9ae358f" x="45.38149" y="229.796193" style="stroke: #000000; stroke-width: 0.8"/>
      </g>
     </g>
     <g id="text_5">
      <!-- −1 -->
      <g transform="translate(3.00024 238.913381) scale(0.24 -0.24)">
       <defs>
        <path id="DejaVuSerif-8cf" d="M 678 2259 
L 4684 2259 
L 4684 1753 
L 678 1753 
L 678 2259 
z
" transform="scale(0.015625)"/>
        <path id="DejaVuSerif-14" d="M 909 0 
L 909 331 
L 1722 331 
L 1722 4213 
L 781 3603 
L 781 4013 
L 1919 4750 
L 2350 4750 
L 2350 331 
L 3163 331 
L 3163 0 
L 909 0 
z
" transform="scale(0.015625)"/>
       </defs>
       <use xlink:href="#DejaVuSerif-8cf"/>
       <use xlink:href="#DejaVuSerif-14" transform="translate(83.796875 0)"/>
      </g>
     </g>
    </g>
    <g id="ytick_2">
     <g id="line2d_6">
      <g>
       <use xlink:href="#mfba9ae358f" x="45.38149" y="149.372096" style="stroke: #000000; stroke-width: 0.8"/>
      </g>
     </g>
     <g id="text_6">
      <!-- 0 -->
      <g transform="translate(23.11149 158.489284) scale(0.24 -0.24)">
       <defs>
        <path id="DejaVuSerif-13" d="M 2034 219 
Q 2513 219 2750 744 
Q 2988 1269 2988 2328 
Q 2988 3391 2750 3916 
Q 2513 4441 2034 4441 
Q 1556 4441 1318 3916 
Q 1081 3391 1081 2328 
Q 1081 1269 1318 744 
Q 1556 219 2034 219 
z
M 2034 -91 
Q 1275 -91 848 546 
Q 422 1184 422 2328 
Q 422 3475 848 4112 
Q 1275 4750 2034 4750 
Q 2797 4750 3222 4112 
Q 3647 3475 3647 2328 
Q 3647 1184 3222 546 
Q 2797 -91 2034 -91 
z
" transform="scale(0.015625)"/>
       </defs>
       <use xlink:href="#DejaVuSerif-13"/>
      </g>
     </g>
    </g>
    <g id="ytick_3">
     <g id="line2d_7">
      <g>
       <use xlink:href="#mfba9ae358f" x="45.38149" y="68.948" style="stroke: #000000; stroke-width: 0.8"/>
      </g>
     </g>
     <g id="text_7">
      <!-- 1 -->
      <g transform="translate(23.11149 78.065187) scale(0.24 -0.24)">
       <use xlink:href="#DejaVuSerif-14"/>
      </g>
     </g>
    </g>
   </g>
   <g id="line2d_8">
    <path d="M 45.38149 256.336145 
L 79.055773 250.095057 
L 112.730056 232.050802 
L 146.404339 205.940912 
L 180.078622 188.779904 
" clip-path="url(#p4ba53c0c0e)" style="fill: none; stroke: #000000; stroke-width: 1.5; stroke-linecap: square"/>
   </g>
   <g id="line2d_9">
    <path d="M 180.078622 188.779904 
L 213.752905 186.25128 
L 247.427188 178.751617 
L 281.10147 166.556741 
L 314.775753 150.176337 
" clip-path="url(#p4ba53c0c0e)" style="fill: none; stroke: #000000; stroke-width: 1.5; stroke-linecap: square"/>
   </g>
   <g id="line2d_10">
    <path d="M 314.775753 150.176337 
L 348.450036 188.779904 
L 382.124319 224.166507 
L 415.798602 248.031824 
L 449.472885 256.336145 
" clip-path="url(#p4ba53c0c0e)" style="fill: none; stroke: #000000; stroke-width: 1.5; stroke-linecap: square"/>
   </g>
   <g id="line2d_11">
    <path d="M 45.38149 15.063855 
L 79.055773 25.07385 
L 112.730056 52.217054 
L 146.404339 87.425891 
L 180.078622 108.355807 
" clip-path="url(#p4ba53c0c0e)" style="fill: none; stroke: #000000; stroke-width: 1.5; stroke-linecap: square"/>
   </g>
   <g id="line2d_12">
    <path d="M 180.078622 108.355807 
L 213.752905 111.307952 
L 247.427188 119.877092 
L 281.10147 133.24399 
L 314.775753 150.176337 
" clip-path="url(#p4ba53c0c0e)" style="fill: none; stroke: #000000; stroke-width: 1.5; stroke-linecap: square"/>
   </g>
   <g id="line2d_13">
    <path d="M 314.775753 150.176337 
L 348.450036 108.355807 
L 382.124319 63.318313 
L 415.798602 28.309105 
L 449.472885 15.063855 
" clip-path="url(#p4ba53c0c0e)" style="fill: none; stroke: #000000; stroke-width: 1.5; stroke-linecap: square"/>
   </g>
   <g id="line2d_14">
    <path d="M 45.38149 268.39976 
L 45.38149 3.00024 
" clip-path="url(#p4ba53c0c0e)" style="fill: none; stroke: #000000; stroke-width: 0.6; stroke-linecap: square"/>
   </g>
   <g id="line2d_15">
    <path d="M 180.078622 268.39976 
L 180.078622 3.00024 
" clip-path="url(#p4ba53c0c0e)" style="fill: none; stroke: #000000; stroke-width: 0.6; stroke-linecap: square"/>
   </g>
   <g id="line2d_16">
    <path d="M 314.775753 268.39976 
L 314.775753 3.00024 
" clip-path="url(#p4ba53c0c0e)" style="fill: none; stroke: #000000; stroke-width: 0.6; stroke-linecap: square"/>
   </g>
   <g id="line2d_17">
    <path d="M 449.472885 268.39976 
L 449.472885 3.00024 
" clip-path="url(#p4ba53c0c0e)" style="fill: none; stroke: #000000; stroke-width: 0.6; stroke-linecap: square"/>
   </g>
   <g id="line2d_18">
    <path d="M 45.38149 149.372096 
L 449.472885 149.372096 
" clip-path="url(#p4ba53c0c0e)" style="fill: none; stroke: #000000; stroke-width: 0.6; stroke-linecap: square"/>
   </g>
   <g id="patch_3">
    <path d="M 45.38149 268.39976 
L 45.38149 3.00024 
" style="fill: none; stroke: #000000; stroke-width: 0.8; stroke-linejoin: miter; stroke-linecap: square"/>
   </g>
   <g id="patch_4">
    <path d="M 449.472885 268.39976 
L 449.472885 3.00024 
" style="fill: none; stroke: #000000; stroke-width: 0.8; stroke-linejoin: miter; stroke-linecap: square"/>
   </g>
   <g id="patch_5">
    <path d="M 45.38149 268.39976 
L 449.472885 268.39976 
" style="fill: none; stroke: #000000; stroke-width: 0.8; stroke-linejoin: miter; stroke-linecap: square"/>
   </g>
   <g id="patch_6">
    <path d="M 45.38149 3.00024 
L 449.472885 3.00024 
" style="fill: none; stroke: #000000; stroke-width: 0.8; stroke-linejoin: miter; stroke-linecap: square"/>
   </g>
  </g>
 </g>
 <defs>
  <clipPath id="p4ba53c0c0e">
   <rect x="45.38149" y="3.00024" width="404.091395" height="265.39952"/>
  </clipPath>
 </defs>
</svg>
